<?xml version="1.0" encoding="utf-8"?>
<!-- Generator: Adobe Illustrator 26.0.1, SVG Export Plug-In . SVG Version: 6.00 Build 0)  -->
<svg version="1.1" xmlns="http://www.w3.org/2000/svg" xmlns:xlink="http://www.w3.org/1999/xlink" x="0px" y="0px"
	 viewBox="0 0 400 300" style="enable-background:new 0 0 400 300;" xml:space="preserve">
<style type="text/css">
	.st0{fill:#2DE136;}
	.st1{fill:#FFFFFF;}
</style>
<g id="Backgro_x3B_und">
	<path class="st0" d="M-513.8,161.57h-576c-6.6,0-12-5.4-12-12v-436c0-6.6,5.4-12,12-12h576c6.6,0,12,5.4,12,12v436
		C-501.8,156.17-507.2,161.57-513.8,161.57z"/>
</g>
<g id="Logo_Originals">
	<g>
		<g>
			<path class="st1" d="M179.02,126.2h21.05v85.16h-21.05V126.2z"/>
			<path class="st1" d="M91.1,126.2h52.1c22.03,0,27.35,14.43,27.35,25.88c0,18.13-8.68,28.86-25.73,28.86h-32.67v30.41H91.1V126.2z
				 M112.16,165.44h22.57c6.51,0,14.11-0.24,14.11-11.69c0-11.09-6.18-12.04-12.16-12.04h-24.53V165.44z"/>
			<path class="st1" d="M270.33,126.2h28.33l-35.6,34.23l38.32,50.93h-28.44l-26.37-36.86l-12.27,11.57v25.28h-21.06V126.2h21.06
				v36.62L270.33,126.2z"/>
			<path class="st1" d="M57.52,150.89c-1.3-11.09-10.96-12.29-19.43-12.29c-8.68,0-14.33,4.3-14.33,10.02c0,4.53,3.47,7.04,8.9,8
				l26.37,4.65c14.11,2.51,24.86,8.35,24.86,23.86c0,15.86-9.77,28.62-40.27,28.62c-18.89,0-43.42-2.62-43.63-29.22h23.66
				c0.22,11.69,10.85,13.72,19.97,13.72c9.88,0,16.61-3.22,16.61-10.62c0-6.56-4.78-8.35-13.13-9.78l-19.21-3.22
				c-13.46-2.27-26.49-6.68-26.49-24.09c0-18.97,14.11-26.72,38.42-26.72c15.96,0,39.62,2.98,41.03,27.08H57.52z"/>
			<path class="st1" d="M304.2,126.2h72.4v16.22h-51.34v17.65h48.74v15.5h-48.74v19.56l51.78,0v16.22l-72.83,0V126.2z"/>
		</g>
		<g>
			<polygon class="st1" points="179.02,97.53 200.08,103.56 184.32,118.78 			"/>
			<polygon class="st1" points="273.35,118.78 286.14,118.78 330.71,47.85 			"/>
			<polygon class="st1" points="361.99,0 264.71,90.56 279.51,68.43 231.17,117.77 244.28,96.02 219.7,118.78 262.61,118.78 			"/>
			<polygon class="st1" points="192.49,218.78 223.3,218.78 201.46,253.52 155.03,265.1 			"/>
			<polygon class="st1" points="92,237.03 102.63,219.05 15.04,300 136.28,269.77 178.95,218.78 111.71,218.78 			"/>
		</g>
	</g>
	<path class="st1" d="M391.67,195.14c4.4,0,8.33,3.17,8.33,8.09c0,4.94-3.93,8.13-8.33,8.13c-4.4,0-8.33-3.19-8.33-8.13
		C383.35,198.3,387.27,195.14,391.67,195.14z M391.67,209.62c3.36,0,6.11-2.69,6.11-6.4c0-3.69-2.75-6.35-6.11-6.35
		c-3.4,0-6.12,2.67-6.12,6.35C385.56,206.93,388.27,209.62,391.67,209.62z M388.44,198.67h3.43c2.28,0,3.56,0.72,3.56,2.69
		c0,1.67-1.04,2.32-2.39,2.43l2.43,3.97h-1.89l-2.21-3.88h-1.13v3.88h-1.8V198.67z M390.24,202.47h1.6c1.02,0,1.78-0.15,1.78-1.26
		c0-0.98-1.04-1.13-1.86-1.13h-1.52V202.47z"/>
	<g>
		<path d="M-1895.43-1325.14l6.36-25.52l103.24,25.74l-6.36,25.52L-1895.43-1325.14z"/>
		<path d="M-1922.01-1218.55l15.75-63.16c6.66-26.71,25.76-28.79,39.64-25.33c21.98,5.48,32.37,19.25,27.21,39.91l-9.87,39.6
			l36.87,9.19l-6.36,25.53L-1922.01-1218.55z M-1868.07-1232.21l6.82-27.37c1.97-7.89,3.97-17.18-9.91-20.64
			c-13.45-3.35-16.47,3.86-18.28,11.1l-7.41,29.73L-1868.07-1232.21z"/>
		<path d="M-1867.84-1435.82l8.56-34.34l30.73,53.51l73.32-31.05l-8.6,34.47l-52.65,20.83l10.32,18.37l30.65,7.64l-6.37,25.53
			l-103.24-25.74l6.37-25.53l44.39,11.07L-1867.84-1435.82z"/>
		<path d="M-1902.22-1170.38c-13.84-1.77-18.21,9.57-20.77,19.84c-2.62,10.53,0.88,18.67,7.82,20.4c5.5,1.37,9.58-2.08,12.38-8.37
			l13.61-30.57c7.3-16.34,17.64-27.61,36.43-22.92c19.23,4.79,31.75,20.49,22.53,57.47c-5.71,22.89-16.3,51.84-48.61,44.06
			l7.15-28.68c14.24,3.27,19.91-9.01,22.66-20.06c2.99-11.97,1.11-21.11-7.85-23.34c-7.95-1.98-11.57,3.27-15.83,12.96l-9.71,22.31
			c-6.82,15.63-16.1,30.09-37.21,24.83c-22.99-5.73-28.13-25.18-20.78-54.65c4.82-19.34,15.59-47.13,45.23-41.55L-1902.22-1170.38z"
			/>
		<path d="M-1857.6-1476.88l21.88-87.76l19.66,4.9l-15.52,62.24l21.4,5.34l14.73-59.08l18.79,4.69l-14.73,59.08l23.71,5.91
			l15.65-62.77l19.66,4.9l-22.01,88.29L-1857.6-1476.88z"/>
	</g>
	<g>
		<path d="M-2521.63-162.56l6.36-25.52l103.24,25.74l-6.36,25.52L-2521.63-162.56z"/>
		<path d="M-2548.21-55.97l15.75-63.16c6.66-26.71,25.76-28.79,39.64-25.33c21.98,5.48,32.37,19.25,27.21,39.91l-9.87,39.6
			l36.87,9.19l-6.36,25.53L-2548.21-55.97z M-2494.27-69.64l6.82-27.37c1.97-7.89,3.97-17.18-9.91-20.64
			c-13.45-3.35-16.47,3.86-18.28,11.1l-7.41,29.73L-2494.27-69.64z"/>
		<path d="M-2494.04-273.24l8.56-34.34l30.74,53.51l73.32-31.05l-8.6,34.47l-52.65,20.83l10.32,18.37l30.65,7.64l-6.36,25.53
			l-103.24-25.74l6.37-25.53l44.39,11.07L-2494.04-273.24z"/>
		<path d="M-2528.43-7.81c-13.84-1.77-18.21,9.57-20.77,19.84c-2.62,10.53,0.88,18.67,7.82,20.4c5.5,1.37,9.58-2.08,12.38-8.37
			l13.61-30.57c7.3-16.35,17.64-27.61,36.43-22.92c19.23,4.79,31.75,20.49,22.53,57.47c-5.71,22.89-16.3,51.84-48.61,44.06
			l7.15-28.68c14.24,3.27,19.91-9.01,22.66-20.06c2.99-11.97,1.11-21.11-7.85-23.34c-7.95-1.98-11.57,3.27-15.83,12.96l-9.71,22.31
			c-6.82,15.63-16.1,30.09-37.21,24.83c-22.99-5.73-28.13-25.18-20.78-54.65c4.82-19.34,15.59-47.13,45.23-41.55L-2528.43-7.81z"/>
		<path d="M-2483.8-314.3l21.88-87.76l19.66,4.9l-15.52,62.24l21.4,5.34l14.73-59.08l18.79,4.69l-14.73,59.08l23.71,5.91
			l15.65-62.77l19.66,4.9l-22.01,88.29L-2483.8-314.3z"/>
	</g>
	<polygon points="-1902.25,-902.72 -1898.38,-918.22 -1970.89,-993.69 	"/>
	<g>
		<g>
			<path d="M-1895.43-786.13l6.36-25.52l103.24,25.74l-6.36,25.52L-1895.43-786.13z"/>
			<path d="M-1922.01-679.54l15.75-63.16c6.66-26.71,25.76-28.79,39.64-25.33c21.98,5.48,32.37,19.25,27.21,39.91l-9.87,39.6
				l36.87,9.19l-6.36,25.53L-1922.01-679.54z M-1868.07-693.2l6.82-27.37c1.97-7.89,3.97-17.18-9.91-20.64
				c-13.45-3.35-16.47,3.86-18.28,11.1l-7.41,29.73L-1868.07-693.2z"/>
			<path d="M-1867.84-896.81l8.56-34.34l30.73,53.51l73.32-31.05l-8.6,34.47l-52.65,20.83l10.32,18.37l30.65,7.64l-6.37,25.53
				l-103.24-25.74l6.37-25.53l44.39,11.07L-1867.84-896.81z"/>
			<path d="M-1902.22-631.37c-13.84-1.77-18.21,9.57-20.77,19.84c-2.62,10.53,0.88,18.67,7.82,20.4c5.5,1.37,9.58-2.08,12.38-8.37
				l13.61-30.57c7.3-16.35,17.64-27.61,36.43-22.92c19.23,4.79,31.75,20.49,22.53,57.47c-5.71,22.89-16.3,51.84-48.61,44.06
				l7.15-28.68c14.24,3.27,19.91-9.01,22.66-20.06c2.99-11.97,1.11-21.11-7.85-23.34c-7.95-1.98-11.57,3.27-15.83,12.96l-9.71,22.31
				c-6.82,15.63-16.1,30.09-37.21,24.83c-22.99-5.73-28.13-25.18-20.78-54.65c4.82-19.34,15.59-47.13,45.23-41.55L-1902.22-631.37z"
				/>
			<path d="M-1857.6-937.87l21.88-87.76l19.66,4.9l-15.52,62.24l21.4,5.34l14.73-59.08l18.79,4.69l-14.73,59.08l23.71,5.91
				l15.65-62.77l19.66,4.9l-22.01,88.29L-1857.6-937.87z"/>
		</g>
		<polygon points="-1993.11,-1046.07 -1912.74,-900.78 -1935.09,-925.4 -1889.89,-851.88 -1912.29,-874.35 -1892.13,-837.68 
			-1879.16,-889.7 		"/>
	</g>
	<g>
		<g>
			<path d="M-2250.15-162.56l6.36-25.52l103.24,25.74l-6.36,25.52L-2250.15-162.56z"/>
			<path d="M-2276.72-55.97l15.75-63.16c6.66-26.71,25.76-28.79,39.64-25.33c21.98,5.48,32.37,19.25,27.21,39.91l-9.87,39.6
				l36.87,9.19l-6.36,25.53L-2276.72-55.97z M-2222.79-69.64l6.82-27.37c1.97-7.89,3.97-17.18-9.91-20.64
				c-13.45-3.35-16.47,3.86-18.28,11.1l-7.41,29.73L-2222.79-69.64z"/>
			<path d="M-2222.55-273.24l8.56-34.34l30.74,53.51l73.32-31.05l-8.6,34.47l-52.65,20.83l10.32,18.37l30.65,7.64l-6.37,25.53
				l-103.24-25.74l6.37-25.53l44.39,11.07L-2222.55-273.24z"/>
			<path d="M-2256.94-7.81c-13.84-1.77-18.21,9.57-20.77,19.84c-2.62,10.53,0.88,18.67,7.82,20.4c5.5,1.37,9.58-2.08,12.38-8.37
				l13.61-30.57c7.3-16.35,17.64-27.61,36.43-22.92c19.23,4.79,31.75,20.49,22.53,57.47c-5.71,22.89-16.3,51.84-48.61,44.06
				l7.15-28.68c14.24,3.27,19.91-9.01,22.66-20.06c2.99-11.97,1.11-21.11-7.85-23.34c-7.95-1.98-11.57,3.27-15.83,12.96l-9.71,22.31
				c-6.82,15.63-16.1,30.09-37.21,24.83c-22.99-5.73-28.13-25.18-20.78-54.65c4.82-19.34,15.59-47.13,45.23-41.55L-2256.94-7.81z"/>
			<path d="M-2212.31-314.3l21.88-87.76l19.66,4.9l-15.52,62.24l21.4,5.34l14.73-59.08l18.79,4.69l-14.73,59.08l23.71,5.91
				l15.65-62.77l19.66,4.9l-22.01,88.29L-2212.31-314.3z"/>
		</g>
		<polygon points="-2347.83,-422.5 -2267.45,-277.21 -2289.81,-301.83 -2244.61,-228.32 -2267.01,-250.78 -2246.85,-214.11 
			-2233.88,-266.13 		"/>
	</g>
	<g>
		<path d="M1177.9-220.87h26.3v106.4h-26.3V-220.87z"/>
		<path d="M1068.05-220.87h65.09c27.52,0,34.17,18.03,34.17,32.34c0,22.65-10.85,36.06-32.14,36.06h-40.81v38h-26.31V-220.87z
			 M1094.36-171.84h28.2c8.14,0,17.63-0.3,17.63-14.61c0-13.86-7.73-15.05-15.19-15.05h-30.64V-171.84z"/>
		<path d="M1291.98-220.87h35.4l-44.48,42.77l47.87,63.63h-35.53l-32.95-46.05l-15.32,14.46v31.59h-26.31v-106.4h26.31v45.75
			L1291.98-220.87z"/>
		<path d="M1026.11-190.02c-1.63-13.86-13.69-15.35-24.27-15.35c-10.85,0-17.9,5.37-17.9,12.52c0,5.67,4.34,8.8,11.12,9.99
			l32.95,5.81c17.63,3.13,31.05,10.43,31.05,29.81c0,19.82-12.21,35.76-50.31,35.76c-23.59,0-54.24-3.28-54.51-36.51h29.56
			c0.27,14.61,13.56,17.14,24.95,17.14c12.34,0,20.75-4.02,20.75-13.26c0-8.2-5.97-10.43-16.41-12.22l-24-4.02
			c-16.82-2.83-33.09-8.34-33.09-30.1c0-23.7,17.63-33.38,48-33.38c19.94,0,49.5,3.73,51.26,33.83H1026.11z"/>
		<path d="M1334.29-220.87h90.45v20.27h-64.14v22.05h60.89v19.37h-60.89v24.44h64.69v20.27h-90.99V-220.87z"/>
	</g>
	<g>
		<g>
			<path d="M1225.13-62.33h26.3v106.4h-26.3V-62.33z"/>
			<path d="M1115.28-62.33h65.09c27.52,0,34.17,18.03,34.17,32.34c0,22.65-10.85,36.06-32.14,36.06h-40.81v38h-26.31V-62.33z
				 M1141.59-13.31h28.2c8.14,0,17.63-0.3,17.63-14.61c0-13.86-7.73-15.05-15.19-15.05h-30.64V-13.31z"/>
			<path d="M1339.21-62.33h35.4l-44.48,42.77l47.87,63.63h-35.53l-32.95-46.05l-15.32,14.46v31.59h-26.31v-106.4h26.31v45.75
				L1339.21-62.33z"/>
			<path d="M1073.34-31.49c-1.63-13.86-13.69-15.35-24.27-15.35c-10.85,0-17.9,5.37-17.9,12.52c0,5.67,4.34,8.8,11.12,9.99
				l32.95,5.81c17.63,3.13,31.05,10.43,31.05,29.81c0,19.82-12.21,35.76-50.31,35.76c-23.59,0-54.24-3.28-54.51-36.51h29.56
				c0.27,14.61,13.56,17.14,24.95,17.14c12.34,0,20.75-4.02,20.75-13.26c0-8.2-5.97-10.43-16.41-12.22l-24-4.02
				c-16.82-2.83-33.09-8.34-33.09-30.1c0-23.7,17.63-33.38,48-33.38c19.94,0,49.5,3.73,51.26,33.83H1073.34z"/>
			<path d="M1381.52-62.33h90.45v20.27h-64.14v22.05h60.89v19.37h-60.89V23.8h64.69v20.27h-90.99V-62.33z"/>
		</g>
		<polygon points="1241.95,53.33 1280.45,53.33 1253.17,96.74 1195.15,111.2 		"/>
		<polygon points="1116.41,76.13 1129.69,53.67 1020.25,154.81 1171.73,117.04 1225.04,53.33 1141.03,53.33 		"/>
	</g>
</g>
</svg>
